<?xml version="1.0" ?><!DOCTYPE svg  PUBLIC '-//W3C//DTD SVG 1.1//EN'  'http://www.w3.org/Graphics/SVG/1.1/DTD/svg11.dtd'><svg enable-background="new 0 0 128 128" id="Слой_1" version="1.1" viewBox="0 0 128 128" xml:space="preserve" xmlns="http://www.w3.org/2000/svg" xmlns:xlink="http://www.w3.org/1999/xlink"><g><path d="M96.2,97.5L89,94c4.3-5,7-11.6,7-18.7v-20h0c2.9,0,5.3-2.4,5.3-5.3v-7.3c0-2.9-2.4-5.3-5.3-5.3h0v-2   c0-4-1.5-7.6-4-10.3l0.1,0C87,13.9,77.2,7.8,64.5,7.8c-11.6,0-21,5.2-26.4,14.8c-0.2,0.3-0.3,0.6-0.4,0.8   c-3.5,2.8-5.7,7.1-5.7,11.9v2h0c-2.9,0-5.3,2.4-5.3,5.3V50c0,2.9,2.4,5.3,5.3,5.3h0v20c0,7.1,2.6,13.7,7,18.7l-7.2,3.4   c-4.1,2-6.8,6.2-6.8,10.8V126h78v-17.7C103,103.7,100.3,99.5,96.2,97.5z M96,41.3c0.7,0,1.3,0.6,1.3,1.3V50c0,0.7-0.6,1.3-1.3,1.3   h0L96,41.3L96,41.3z M64.5,11.8c8.5,0,15.3,3,20.1,8.7C83.3,20.2,82,20,80.7,20H47.3c-0.9,0-1.8,0.1-2.7,0.3   C49.4,14.7,56.2,11.8,64.5,11.8z M32,51.3c-0.7,0-1.3-0.6-1.3-1.3v-7.3c0-0.7,0.6-1.3,1.3-1.3h0L32,51.3L32,51.3z M36,35.3   C36,29.1,41.1,24,47.3,24h33.3C86.9,24,92,29.1,92,35.3v40C92,88.9,80.9,100,67.3,100h-6.7C47.1,100,36,88.9,36,75.3V35.3z    M29,108.3c0-3.1,1.8-5.9,4.5-7.2l8.4-4.1c5,4.3,11.6,7,18.7,7H62v18H42v-3h-4v3h-9V108.3z M99,122h-9v-3h-4v3H66v-18h1.3   c7.2,0,13.7-2.6,18.7-7l8.4,4.1c2.8,1.3,4.5,4.2,4.5,7.2V122z" fill="#3EBBC4"/><path d="M84,44.3H44v17h40V44.3z M80,57.3H48v-9h32V57.3z" fill="#3EBBC4"/></g></svg>