<?xml version="1.0" ?><!DOCTYPE svg  PUBLIC '-//W3C//DTD SVG 1.1//EN'  'http://www.w3.org/Graphics/SVG/1.1/DTD/svg11.dtd'><svg enable-background="new 0 0 128 128" id="Слой_1" version="1.1" viewBox="0 0 128 128" xml:space="preserve" xmlns="http://www.w3.org/2000/svg" xmlns:xlink="http://www.w3.org/1999/xlink"><g><g opacity="0.3"><path d="M11.5,85.5V54.1c0-4.7,3.8-8.5,8.5-8.5h8.3v-4H20c-0.3,0-0.7,0-1,0.1c3.6-3.7,8.5-5.6,14.5-5.6v-4    c-9.3,0-16.8,4.2-21.1,11.8c-0.1,0.2-0.2,0.4-0.3,0.6c-2.8,2.3-4.6,5.8-4.6,9.6v1.2c-2.3,0.2-4.2,2.2-4.2,4.6v5.8    c0,2.4,1.8,4.4,4.2,4.6v15.3c0,5.5,1.9,10.6,5.2,14.6l-5.1,2.5c-3.4,1.6-5.6,5.1-5.6,8.9v14.4h24.2v-4h-10v-1.9h-4v1.9H6v-10.4    c0-2.2,1.3-4.3,3.3-5.3l6.4-3.1c3,2.5,6.6,4.3,10.6,5l0.7-3.9C18,102.5,11.5,94.7,11.5,85.5z M7.3,65.6v-5.8    c0-0.2,0.1-0.3,0.2-0.4v6.7C7.4,65.9,7.3,65.8,7.3,65.6z" fill="#000000"/><polygon fill="#000000" points="20.9,64.7 37.2,64.7 37.2,60.7 16.9,60.7 16.9,74.9 42.2,74.9 42.2,70.9 20.9,70.9   "/><path d="M120.8,54.7C120,40.6,109.2,28.9,95,27.2l-0.5,4c11.9,1.4,21.1,11,22.3,22.8l-0.9-0.2    c-2.3-12-9.7-19.7-20.4-21.2l-0.6,4c9.5,1.4,15.7,8.4,17.3,19.8l-1,5.5c-0.1,0-0.1,0-0.2,0c-6.9,1.1-12.9-1.3-18.3-4    c-1-0.5-2.2-0.1-2.7,0.9c-0.5,1-0.1,2.2,0.9,2.7c4.7,2.4,10.3,4.7,16.7,4.7c0.9,0,1.9-0.1,2.8-0.2l-2.4,13.5    c-6.5,12.9-13.8,14.4-16.8,14.4c-2.9,0-8.6-1.3-14.3-10L73.7,86c6.7,10.3,13.9,11.9,17.7,11.9c2.2,0,4.2-0.5,6-1.2    c0.4,0.9,1.1,1.6,1.9,2l15.6,7.5c2,1,3.3,3,3.3,5.3v10.3h-6v-1.7h-4v1.7h-6.9v4h21v-14.3c0-3.8-2.2-7.2-5.6-8.9L101.1,95v-0.4    c5.2-3.7,8.9-9.7,11-14.1l3.8,0.7c0.4,0.1,0.8,0.1,1.1,0.1c3.2,0,5.9-2.3,6.5-5.4l2.4-13.5C126.5,58.8,124.3,55.5,120.8,54.7z     M122,61.6l-2.4,13.5c-0.2,1.4-1.6,2.3-3,2.1l-3.8-0.7l3.3-18.6l3.8,0.7C121.3,58.9,122.2,60.2,122,61.6z" fill="#000000"/></g><g><path d="M96.2,97.5L81,90.1l0,0l-5-2.4v-1.6c5.6-3.8,11.8-11.2,17-25.1c2.7-0.1,5-1.3,6.4-3.3    c1.7-2.4,2-5.6,0.8-8.2c-0.4-0.9-1-1.6-1.6-2.2h2.4v-9.6l-4.3-1.2v-0.6c0-12.5-7.1-23.8-18.3-29.3c-0.6-2.2-2.5-3.8-4.9-3.8H66V1    h-4v1.7h-7.5c-2.4,0-4.3,1.6-4.9,3.8C38.4,12,31.3,23.4,31.3,35.8v0.6L27,37.7v9.6h2.4c-0.7,0.6-1.2,1.4-1.6,2.2    c-1.2,2.6-0.9,5.8,0.8,8.2c1.5,2.1,3.8,3.2,6.4,3.3c5.2,13.9,11.5,21.2,17,25.1v1.6l-3.7,1.8v0l-16.5,8c-4.1,2-6.8,6.2-6.8,10.8    v17.5l78,0v-17.5C103,103.7,100.3,99.5,96.2,97.5z M72,89.2c0,0.3-0.1,0.7-0.1,1.1c0,0.2-0.1,0.5-0.1,0.7c0,0,0,0,0,0    c-0.1,0.2-0.1,0.4-0.2,0.6c0,0,0,0.1-0.1,0.1c-0.1,0.2-0.1,0.3-0.2,0.5c0,0.1-0.1,0.2-0.2,0.3c0,0.1-0.1,0.2-0.2,0.3    c-0.1,0.2-0.2,0.4-0.3,0.6c0,0,0,0,0,0c-0.9,1.3-2.1,2.3-3.5,2.9c0,0,0,0-0.1,0c-0.2,0.1-0.4,0.2-0.6,0.2c0,0-0.1,0-0.1,0    c-0.2,0.1-0.4,0.1-0.6,0.1c-0.1,0-0.1,0-0.2,0c-0.2,0-0.4,0.1-0.6,0.1c-0.1,0-0.1,0-0.2,0c-0.3,0-0.5,0-0.8,0c-4.4,0-8-3.6-8-8    v-0.6c3.3,1.5,6.1,1.8,8,1.8c1.9,0,4.7-0.3,8-1.8V89C72,89.1,72,89.1,72,89.2z M96.2,55.4c-0.4,0.5-0.9,1.1-1.8,1.4    c0.5-2.2,0.9-4.6,1.1-6.8c0.5,0.3,0.9,0.7,1.1,1.3C97.2,52.5,97.1,54.2,96.2,55.4z M31,40.7l4.3-1.2v-3.6    c0-10.2,5.5-19.6,14.1-24.7v12h4V7.8c0-0.6,0.5-1.1,1.1-1.1H62v23h4v-23h7.5c0.6,0,1.1,0.5,1.1,1.1v15.3h4v-12    c8.7,5.1,14.1,14.5,14.1,24.7v3.6l4.3,1.2v2.6H31V40.7z M31.8,55.4c-0.9-1.2-1-2.9-0.4-4.1c0.3-0.5,0.6-1,1.1-1.3    c0.2,2.5,0.7,4.7,1.2,6.8C32.8,56.5,32.2,55.9,31.8,55.4z M38.3,58.4c-0.9-3.3-1.8-6.8-2-11.1h55.4c-0.1,3.2-0.8,8-1.9,11    c-9,25.1-21,27.8-25.8,27.8C59.3,86.2,47.3,83.5,38.3,58.4z M99,121.8l-9,0V119h-4v2.8l-44,0V119h-4v2.8l-9,0v-13.5    c0-3.1,1.8-5.9,4.5-7.2L52.4,92c0,0.1,0.1,0.2,0.1,0.3c0,0.1,0.1,0.3,0.1,0.4c0.1,0.2,0.2,0.5,0.3,0.7c0,0.1,0.1,0.2,0.1,0.3    c0.1,0.3,0.3,0.6,0.4,0.8c0,0,0,0.1,0.1,0.1c0.2,0.3,0.4,0.6,0.6,0.9c0.1,0.1,0.1,0.2,0.2,0.3c0.1,0.2,0.3,0.4,0.5,0.6    c0.1,0.1,0.2,0.2,0.3,0.3c0.1,0.2,0.3,0.3,0.5,0.5c0.1,0.1,0.2,0.2,0.3,0.3c0.2,0.2,0.3,0.3,0.5,0.5c0.1,0.1,0.2,0.2,0.3,0.3    c0.2,0.2,0.4,0.3,0.6,0.5c0.1,0.1,0.2,0.1,0.2,0.2c0.3,0.2,0.6,0.4,0.9,0.6c0.1,0,0.1,0.1,0.2,0.1c0.3,0.1,0.5,0.3,0.8,0.4    c0.1,0.1,0.2,0.1,0.4,0.1c0.2,0.1,0.4,0.2,0.7,0.2c0.1,0,0.3,0.1,0.4,0.1c0.2,0.1,0.5,0.1,0.7,0.2c0.1,0,0.3,0.1,0.4,0.1    c0.2,0,0.5,0.1,0.8,0.1c0.1,0,0.2,0,0.4,0c0.4,0,0.8,0.1,1.1,0.1c0.4,0,0.7,0,1.1,0c0.2,0,0.4,0,0.5-0.1c0.2,0,0.3,0,0.5-0.1    c0.2,0,0.5-0.1,0.7-0.2c0.1,0,0.2,0,0.3-0.1c0.3-0.1,0.5-0.2,0.8-0.2c0.1,0,0.1,0,0.2,0c0.3-0.1,0.6-0.2,0.8-0.3c0,0,0.1,0,0.1,0    c0.3-0.1,0.6-0.3,0.8-0.4c0,0,0,0,0,0c0.3-0.2,0.5-0.3,0.8-0.5c0,0,0,0,0,0c0.3-0.2,0.5-0.3,0.7-0.5c0,0,0.1,0,0.1-0.1    c0.2-0.2,0.4-0.4,0.6-0.5c0,0,0.1-0.1,0.1-0.1c0.2-0.2,0.3-0.3,0.5-0.5c0.1-0.1,0.2-0.2,0.2-0.3c0.1-0.1,0.2-0.3,0.4-0.4    c0.1-0.2,0.3-0.3,0.4-0.5c0.1-0.1,0.1-0.2,0.2-0.2c0.8-1.1,1.4-2.4,1.7-3.8l18.8,9.1c2.8,1.3,4.5,4.2,4.5,7.2V121.8z" fill="#000000"/><rect fill="#000000" x="42.5" y="36"/></g></g></svg>