<?xml version="1.0" ?><!DOCTYPE svg  PUBLIC '-//W3C//DTD SVG 1.1//EN'  'http://www.w3.org/Graphics/SVG/1.1/DTD/svg11.dtd'><svg enable-background="new 0 0 128 128" id="Слой_1" version="1.1" viewBox="0 0 128 128" xml:space="preserve" xmlns="http://www.w3.org/2000/svg" xmlns:xlink="http://www.w3.org/1999/xlink"><g><g><path d="M74.9,50.8l1.1-0.6V14c0-6.6-5.4-12-12-12S52,7.4,52,14v36.2l1.1,0.6c1.2,0.6,2,1.8,2,3.2    c0,1.4-0.7,2.6-2,3.2L52,57.8V66h10v26.5c-0.6,0.3-1.1,0.6-1.5,1.1c-0.9,1-1.3,2.3-1.2,3.6l0.9,8.8h7.6l0.9-8.8    c0.1-1.3-0.3-2.6-1.2-3.6c-0.4-0.5-0.9-0.8-1.5-1.1V66h10v-8.2l-1.1-0.6c-1.2-0.6-2-1.8-2-3.2C72.9,52.6,73.7,51.4,74.9,50.8z     M64.2,102h-0.4l-0.5-5.2c0-0.3,0.1-0.5,0.2-0.6S63.7,96,64,96s0.5,0.1,0.5,0.2s0.2,0.3,0.2,0.6L64.2,102z M64,6    c3.7,0,6.8,2.6,7.7,6H56.3C57.2,8.6,60.3,6,64,6z M72,60.1V62H56v-1.9c1.9-1.4,3.1-3.7,3.1-6.1c0-2.5-1.2-4.7-3.1-6.1V16h16v31.9    c-1.9,1.4-3.1,3.7-3.1,6.1C68.9,56.5,70.1,58.7,72,60.1z" fill="#3EBBC4"/><path d="M13.1,57.2L12,57.8V66h10v46.5c-0.6,0.3-1.1,0.6-1.5,1.1c-0.9,1-1.3,2.3-1.2,3.6l0.9,8.8h7.6l0.9-8.8    c0.1-1.3-0.3-2.6-1.2-3.6c-0.4-0.5-0.9-0.8-1.5-1.1V66h10v-8.2l-1.1-0.6c-1.2-0.6-2-1.8-2-3.2c0-1.4,0.7-2.6,2-3.2l1.1-0.6V14    c0-6.6-5.4-12-12-12S12,7.4,12,14v36.2l1.1,0.6c1.2,0.6,2,1.8,2,3.2C15.1,55.4,14.3,56.6,13.1,57.2z M24.2,122h-0.4l-0.5-5.2    c0-0.3,0.1-0.5,0.2-0.6s0.3-0.2,0.5-0.2c0.3,0,0.5,0.1,0.5,0.2s0.2,0.3,0.2,0.6L24.2,122z M32,60.1V62H16v-1.9    c1.9-1.4,3.1-3.7,3.1-6.1c0-2.5-1.2-4.7-3.1-6.1V16h16v31.9c-1.9,1.4-3.1,3.7-3.1,6.1C28.9,56.5,30.1,58.7,32,60.1z M24,6    c3.7,0,6.8,2.6,7.7,6H16.3C17.2,8.6,20.3,6,24,6z" fill="#3EBBC4"/><path d="M114.9,50.8l1.1-0.6V14c0-6.6-5.4-12-12-12S92,7.4,92,14v36.2l1.1,0.6c1.2,0.6,2,1.8,2,3.2    c0,1.4-0.7,2.6-2,3.2L92,57.8V66h10v6.5c-0.6,0.3-1.1,0.6-1.5,1.1c-0.9,1-1.3,2.3-1.2,3.6l0.9,8.8h7.6l0.9-8.8    c0.1-1.3-0.3-2.6-1.2-3.6c-0.4-0.5-0.9-0.8-1.5-1.1V66h10v-8.2l-1.1-0.6c-1.2-0.6-2-1.8-2-3.2C112.9,52.6,113.7,51.4,114.9,50.8z     M104.2,82h-0.4l-0.5-5.2c0-0.3,0.1-0.5,0.2-0.6s0.3-0.2,0.5-0.2c0.3,0,0.5,0.1,0.5,0.2c0.1,0.1,0.2,0.3,0.2,0.6L104.2,82z M104,6    c3.7,0,6.8,2.6,7.7,6H96.3C97.2,8.6,100.3,6,104,6z M112,60.1V62H96v-1.9c1.9-1.4,3.1-3.7,3.1-6.1c0-2.5-1.2-4.7-3.1-6.1V16h16    v31.9c-1.9,1.4-3.1,3.7-3.1,6.1C108.9,56.5,110.1,58.7,112,60.1z" fill="#3EBBC4"/></g></g></svg>